<svg xmlns="http://www.w3.org/2000/svg" xmlns:xlink="http://www.w3.org/1999/xlink" width="200" zoomAndPan="magnify" viewBox="0 0 150 60" height="80" preserveAspectRatio="xMidYMid meet" version="1.0"><defs><g/></defs><g fill="#ff751f" fill-opacity="1"><g transform="translate(7.511718, 40.123649)"><g><path d="M 17.5625 -32.65625 C 18.820312 -32.03125 19.835938 -31.222656 20.609375 -30.234375 C 21.390625 -29.253906 21.9375 -28.125 22.25 -26.84375 C 22.3125 -26.5625 22.335938 -26.273438 22.328125 -25.984375 C 22.328125 -25.921875 22.328125 -25.859375 22.328125 -25.796875 C 22.328125 -25.566406 22.207031 -25.40625 21.96875 -25.3125 C 21.84375 -25.25 21.726562 -25.234375 21.625 -25.265625 C 21.519531 -25.296875 21.453125 -25.363281 21.421875 -25.46875 C 21.359375 -25.6875 21.304688 -25.90625 21.265625 -26.125 C 21.242188 -26.175781 21.226562 -26.226562 21.21875 -26.28125 C 20.8125 -27.925781 19.957031 -29.34375 18.65625 -30.53125 C 16.9375 -32.101562 14.878906 -32.71875 12.484375 -32.375 C 10.410156 -32.070312 8.519531 -31.363281 6.8125 -30.25 C 4.488281 -28.78125 2.5625 -26.945312 1.03125 -24.75 C 0.570312 -24.101562 0.1875 -23.429688 -0.125 -22.734375 C -1.1875 -20.390625 -1.242188 -18.039062 -0.296875 -15.6875 C -0.00390625 -14.914062 0.359375 -14.1875 0.796875 -13.5 C 1.242188 -12.820312 1.722656 -12.160156 2.234375 -11.515625 C 3.390625 -10.085938 4.628906 -8.734375 5.953125 -7.453125 C 6.660156 -6.753906 7.375 -6.070312 8.09375 -5.40625 C 9.101562 -4.425781 10.101562 -3.445312 11.09375 -2.46875 C 12.34375 -1.25 13.484375 0.0507812 14.515625 1.4375 C 14.835938 1.875 15.132812 2.332031 15.40625 2.8125 C 15.675781 3.289062 15.890625 3.796875 16.046875 4.328125 C 16.492188 5.753906 16.039062 6.859375 14.6875 7.640625 C 13.976562 8.078125 13.210938 8.335938 12.390625 8.421875 C 8.703125 8.703125 5.769531 7.46875 3.59375 4.71875 C 3.039062 4 2.691406 3.234375 2.546875 2.421875 C 2.398438 1.609375 2.40625 0.773438 2.5625 -0.078125 C 2.894531 -2.015625 3.722656 -3.75 5.046875 -5.28125 C 5.179688 -5.4375 5.3125 -5.585938 5.4375 -5.734375 C 5.476562 -5.804688 5.53125 -5.875 5.59375 -5.9375 C 5.457031 -6.175781 5.296875 -6.375 5.109375 -6.53125 C 5.046875 -6.59375 4.992188 -6.644531 4.953125 -6.6875 C 3.554688 -8.0625 2.25 -9.5 1.03125 -11 C 0.1875 -12.03125 -0.523438 -13.132812 -1.109375 -14.3125 C -2.617188 -17.320312 -2.585938 -20.320312 -1.015625 -23.3125 C -0.140625 -24.882812 0.914062 -26.296875 2.15625 -27.546875 C 3.40625 -28.796875 4.816406 -29.910156 6.390625 -30.890625 C 7.929688 -31.847656 9.601562 -32.546875 11.40625 -32.984375 C 12.15625 -33.160156 12.910156 -33.269531 13.671875 -33.3125 C 14.429688 -33.363281 15.195312 -33.316406 15.96875 -33.171875 C 16.53125 -33.066406 17.0625 -32.894531 17.5625 -32.65625 Z M 5.984375 -5.234375 C 5.878906 -5.140625 5.785156 -5.035156 5.703125 -4.921875 C 5.128906 -4.148438 4.6875 -3.332031 4.375 -2.46875 C 4.0625 -1.601562 3.847656 -0.703125 3.734375 0.234375 C 3.523438 2.128906 4.144531 3.742188 5.59375 5.078125 C 6.976562 6.378906 8.644531 7.1875 10.59375 7.5 C 11.488281 7.664062 12.378906 7.640625 13.265625 7.421875 C 14.617188 7.066406 15.144531 6.25 14.84375 4.96875 C 14.675781 4.363281 14.425781 3.785156 14.09375 3.234375 C 13.582031 2.378906 13 1.566406 12.34375 0.796875 C 11.539062 -0.160156 10.691406 -1.085938 9.796875 -1.984375 C 8.898438 -2.878906 7.988281 -3.765625 7.0625 -4.640625 C 6.851562 -4.828125 6.648438 -5.015625 6.453125 -5.203125 C 6.398438 -5.253906 6.335938 -5.289062 6.265625 -5.3125 C 6.234375 -5.34375 6.203125 -5.363281 6.171875 -5.375 C 6.148438 -5.363281 6.128906 -5.347656 6.109375 -5.328125 C 6.054688 -5.304688 6.015625 -5.273438 5.984375 -5.234375 Z M 5.984375 -5.234375 "/></g></g></g><g fill="#ff751f" fill-opacity="1"><g transform="translate(22.531264, 40.123649)"><g><path d="M 10.703125 -4.484375 C 10.734375 -4.472656 10.769531 -4.445312 10.8125 -4.40625 C 10.863281 -4.375 10.894531 -4.332031 10.90625 -4.28125 C 10.914062 -4.238281 10.882812 -4.195312 10.8125 -4.15625 C 10.363281 -3.914062 9.816406 -3.816406 9.171875 -3.859375 C 8.535156 -3.898438 8.035156 -4.109375 7.671875 -4.484375 C 7.648438 -4.296875 7.617188 -4.109375 7.578125 -3.921875 C 7.515625 -3.523438 7.453125 -3.140625 7.390625 -2.765625 C 7.316406 -2.347656 7.175781 -1.945312 6.96875 -1.5625 C 6.6875 -1.113281 6.328125 -0.816406 5.890625 -0.671875 C 5.460938 -0.523438 5.054688 -0.503906 4.671875 -0.609375 C 4.265625 -0.691406 3.9375 -0.890625 3.6875 -1.203125 C 3.570312 -1.347656 3.46875 -1.488281 3.375 -1.625 C 3.332031 -1.6875 3.289062 -1.75 3.25 -1.8125 C 3.132812 -1.800781 3.046875 -1.765625 2.984375 -1.703125 C 2.929688 -1.648438 2.878906 -1.597656 2.828125 -1.546875 C 2.785156 -1.484375 2.734375 -1.4375 2.671875 -1.40625 C 2.253906 -1.101562 1.835938 -1 1.421875 -1.09375 C 1.003906 -1.195312 0.6875 -1.476562 0.46875 -1.9375 C 0.375 -2.15625 0.300781 -2.378906 0.25 -2.609375 C 0.144531 -3.054688 0.078125 -3.5 0.046875 -3.9375 C 0.015625 -4.382812 0.00390625 -4.835938 0.015625 -5.296875 C 0.046875 -5.578125 0.148438 -5.757812 0.328125 -5.84375 C 0.515625 -5.925781 0.703125 -5.914062 0.890625 -5.8125 C 1.078125 -5.707031 1.179688 -5.507812 1.203125 -5.21875 C 1.222656 -5.03125 1.234375 -4.84375 1.234375 -4.65625 C 1.210938 -3.945312 1.285156 -3.257812 1.453125 -2.59375 C 1.503906 -2.4375 1.5625 -2.285156 1.625 -2.140625 C 1.664062 -2.066406 1.71875 -2.023438 1.78125 -2.015625 C 1.84375 -2.015625 1.898438 -2.050781 1.953125 -2.125 C 2.128906 -2.375 2.265625 -2.644531 2.359375 -2.9375 C 2.453125 -3.238281 2.53125 -3.546875 2.59375 -3.859375 C 2.59375 -3.890625 2.597656 -3.925781 2.609375 -3.96875 C 2.640625 -4.09375 2.671875 -4.226562 2.703125 -4.375 C 2.722656 -4.5625 2.757812 -4.742188 2.8125 -4.921875 C 2.894531 -5.222656 3.128906 -5.347656 3.515625 -5.296875 C 3.835938 -5.273438 4.007812 -5.113281 4.03125 -4.8125 C 4.03125 -4.113281 4.101562 -3.425781 4.25 -2.75 C 4.300781 -2.507812 4.367188 -2.273438 4.453125 -2.046875 C 4.546875 -1.816406 4.6875 -1.609375 4.875 -1.421875 C 5.0625 -1.234375 5.257812 -1.234375 5.46875 -1.421875 C 5.769531 -1.710938 5.96875 -2.046875 6.0625 -2.421875 C 6.300781 -3.179688 6.410156 -3.960938 6.390625 -4.765625 C 6.390625 -4.828125 6.390625 -4.890625 6.390625 -4.953125 C 6.359375 -5.296875 6.351562 -5.628906 6.375 -5.953125 C 6.382812 -6.410156 6.628906 -6.582031 7.109375 -6.46875 C 7.222656 -6.445312 7.320312 -6.410156 7.40625 -6.359375 C 7.5 -6.316406 7.566406 -6.226562 7.609375 -6.09375 C 7.984375 -5.269531 8.375 -4.738281 8.78125 -4.5 C 9.195312 -4.257812 9.570312 -4.171875 9.90625 -4.234375 C 10.238281 -4.296875 10.476562 -4.367188 10.625 -4.453125 C 10.65625 -4.460938 10.679688 -4.472656 10.703125 -4.484375 Z M 10.703125 -4.484375 "/></g></g></g><g fill="#ff751f" fill-opacity="1"><g transform="translate(32.519713, 40.123649)"><g><path d="M 12.125 -4.734375 C 12.21875 -4.867188 12.316406 -4.96875 12.421875 -5.03125 C 12.535156 -5.09375 12.601562 -5.09375 12.625 -5.03125 C 12.644531 -4.96875 12.585938 -4.820312 12.453125 -4.59375 C 12.128906 -4.113281 11.65625 -3.65625 11.03125 -3.21875 C 10.40625 -2.789062 9.710938 -2.421875 8.953125 -2.109375 C 8.191406 -1.804688 7.453125 -1.601562 6.734375 -1.5 C 6.015625 -1.40625 5.40625 -1.453125 4.90625 -1.640625 C 4.40625 -1.835938 4.09375 -2.21875 3.96875 -2.78125 C 3.550781 -2.101562 3.050781 -1.570312 2.46875 -1.1875 C 1.894531 -0.800781 1.347656 -0.640625 0.828125 -0.703125 C 0.234375 -0.773438 -0.15625 -0.992188 -0.34375 -1.359375 C -0.539062 -1.722656 -0.609375 -2.140625 -0.546875 -2.609375 C -0.484375 -3.078125 -0.34375 -3.519531 -0.125 -3.9375 C 0.0390625 -4.257812 0.273438 -4.5625 0.578125 -4.84375 C 0.878906 -5.125 1.191406 -5.34375 1.515625 -5.5 C 1.921875 -5.707031 2.332031 -5.800781 2.75 -5.78125 C 3.164062 -5.757812 3.609375 -5.625 4.078125 -5.375 C 4.078125 -5.375 4.082031 -5.382812 4.09375 -5.40625 C 4.09375 -5.457031 4.101562 -5.515625 4.125 -5.578125 C 4.144531 -5.640625 4.179688 -5.695312 4.234375 -5.75 C 4.316406 -5.8125 4.421875 -5.859375 4.546875 -5.890625 C 4.679688 -5.929688 4.804688 -5.9375 4.921875 -5.90625 C 5.117188 -5.875 5.238281 -5.78125 5.28125 -5.625 C 5.332031 -5.46875 5.34375 -5.296875 5.3125 -5.109375 C 5.28125 -4.921875 5.25 -4.765625 5.21875 -4.640625 C 5.207031 -4.609375 5.203125 -4.582031 5.203125 -4.5625 C 5.003906 -3.769531 5.070312 -3.210938 5.40625 -2.890625 C 5.75 -2.566406 6.238281 -2.414062 6.875 -2.4375 C 7.519531 -2.46875 8.203125 -2.601562 8.921875 -2.84375 C 9.648438 -3.09375 10.304688 -3.390625 10.890625 -3.734375 C 11.484375 -4.078125 11.894531 -4.410156 12.125 -4.734375 Z M 1.0625 -1.765625 C 1.3125 -1.597656 1.582031 -1.613281 1.875 -1.8125 C 2.164062 -2.019531 2.445312 -2.316406 2.71875 -2.703125 C 3 -3.085938 3.226562 -3.46875 3.40625 -3.84375 C 3.59375 -4.226562 3.695312 -4.519531 3.71875 -4.71875 C 3.144531 -5.03125 2.648438 -5.085938 2.234375 -4.890625 C 1.828125 -4.691406 1.507812 -4.375 1.28125 -3.9375 C 1.050781 -3.5 0.914062 -3.066406 0.875 -2.640625 C 0.84375 -2.210938 0.90625 -1.921875 1.0625 -1.765625 Z M 1.0625 -1.765625 "/></g></g></g><g fill="#ff751f" fill-opacity="1"><g transform="translate(44.237089, 40.123649)"><g><path d="M 5.234375 -3.921875 C 5.335938 -4.140625 5.40625 -4.238281 5.4375 -4.21875 C 5.476562 -4.207031 5.488281 -4.125 5.46875 -3.96875 C 5.457031 -3.8125 5.425781 -3.632812 5.375 -3.4375 C 5.300781 -3.132812 5.175781 -2.785156 5 -2.390625 C 4.820312 -1.992188 4.628906 -1.632812 4.421875 -1.3125 C 4.097656 -0.863281 3.703125 -0.523438 3.234375 -0.296875 C 2.773438 -0.0664062 2.351562 -0.0078125 1.96875 -0.125 C 1.59375 -0.238281 1.375 -0.597656 1.3125 -1.203125 C 1.300781 -1.703125 1.34375 -2.253906 1.4375 -2.859375 C 1.476562 -3.109375 1.515625 -3.351562 1.546875 -3.59375 C 1.546875 -3.6875 1.523438 -3.753906 1.484375 -3.796875 C 1.441406 -3.847656 1.382812 -3.867188 1.3125 -3.859375 C 1.257812 -3.859375 1.203125 -3.859375 1.140625 -3.859375 C 0.847656 -3.804688 0.546875 -3.8125 0.234375 -3.875 C -0.140625 -3.976562 -0.359375 -4.160156 -0.421875 -4.421875 C -0.484375 -4.679688 -0.476562 -5.023438 -0.40625 -5.453125 C -0.363281 -5.742188 -0.25 -5.960938 -0.0625 -6.109375 C 0.125 -6.265625 0.34375 -6.332031 0.59375 -6.3125 C 0.9375 -6.28125 1.101562 -6.144531 1.09375 -5.90625 C 1.082031 -5.664062 1.019531 -5.414062 0.90625 -5.15625 C 0.789062 -4.925781 0.726562 -4.734375 0.71875 -4.578125 C 0.71875 -4.429688 0.847656 -4.378906 1.109375 -4.421875 C 1.171875 -4.441406 1.238281 -4.460938 1.3125 -4.484375 C 1.40625 -4.523438 1.515625 -4.5625 1.640625 -4.59375 C 1.773438 -4.625 1.941406 -4.628906 2.140625 -4.609375 C 2.378906 -4.597656 2.535156 -4.488281 2.609375 -4.28125 C 2.691406 -4.070312 2.726562 -3.804688 2.71875 -3.484375 C 2.707031 -3.171875 2.675781 -2.847656 2.625 -2.515625 C 2.570312 -2.109375 2.546875 -1.757812 2.546875 -1.46875 C 2.546875 -1.175781 2.628906 -1.003906 2.796875 -0.953125 C 3.023438 -0.890625 3.359375 -1.09375 3.796875 -1.5625 C 4.242188 -2.03125 4.722656 -2.816406 5.234375 -3.921875 Z M 5.234375 -3.921875 "/></g></g></g><g fill="#ff751f" fill-opacity="1"><g transform="translate(49.251798, 40.123649)"><g><path d="M 12.09375 -4.96875 C 12.332031 -5.082031 12.46875 -5.101562 12.5 -5.03125 C 12.550781 -4.882812 12.425781 -4.625 12.125 -4.25 C 11.820312 -3.882812 11.414062 -3.515625 10.90625 -3.140625 C 9.65625 -2.273438 8.609375 -1.753906 7.765625 -1.578125 C 6.921875 -1.410156 6.226562 -1.460938 5.6875 -1.734375 C 5.15625 -2.015625 4.757812 -2.394531 4.5 -2.875 C 4.1875 -3.414062 3.988281 -3.953125 3.90625 -4.484375 C 3.800781 -5.066406 3.660156 -5.394531 3.484375 -5.46875 C 3.304688 -5.539062 3.113281 -5.457031 2.90625 -5.21875 C 2.695312 -4.976562 2.492188 -4.660156 2.296875 -4.265625 C 2.109375 -3.878906 1.953125 -3.5 1.828125 -3.125 C 1.703125 -2.757812 1.632812 -2.476562 1.625 -2.28125 C 1.582031 -2.175781 1.546875 -2.078125 1.515625 -1.984375 C 1.460938 -1.828125 1.410156 -1.675781 1.359375 -1.53125 C 1.191406 -1.113281 0.914062 -0.960938 0.53125 -1.078125 C 0.3125 -1.109375 0.179688 -1.238281 0.140625 -1.46875 C 0.128906 -1.625 0.125 -1.785156 0.125 -1.953125 C 0.125 -2.085938 0.117188 -2.226562 0.109375 -2.375 C 0.0859375 -3.363281 0.0625 -4.359375 0.03125 -5.359375 C 0.03125 -5.472656 0.0859375 -5.550781 0.203125 -5.59375 C 0.316406 -5.644531 0.445312 -5.664062 0.59375 -5.65625 C 0.75 -5.65625 0.882812 -5.632812 1 -5.59375 C 1.113281 -5.550781 1.175781 -5.492188 1.1875 -5.421875 C 1.21875 -5.253906 1.234375 -5.113281 1.234375 -5 C 1.234375 -4.820312 1.242188 -4.695312 1.265625 -4.625 C 1.285156 -4.550781 1.332031 -4.550781 1.40625 -4.625 C 1.488281 -4.707031 1.628906 -4.878906 1.828125 -5.140625 C 2.117188 -5.617188 2.492188 -6.023438 2.953125 -6.359375 C 3.160156 -6.515625 3.398438 -6.625 3.671875 -6.6875 C 3.953125 -6.757812 4.222656 -6.769531 4.484375 -6.71875 C 4.753906 -6.65625 4.96875 -6.5 5.125 -6.25 C 5.28125 -6.007812 5.394531 -5.734375 5.46875 -5.421875 C 5.550781 -5.117188 5.613281 -4.835938 5.65625 -4.578125 C 5.664062 -4.503906 5.675781 -4.441406 5.6875 -4.390625 C 5.75 -4.046875 5.828125 -3.726562 5.921875 -3.4375 C 6.023438 -3.15625 6.191406 -2.929688 6.421875 -2.765625 C 6.648438 -2.597656 6.988281 -2.535156 7.4375 -2.578125 C 8.394531 -2.648438 9.15625 -2.847656 9.71875 -3.171875 C 10.289062 -3.503906 10.769531 -3.859375 11.15625 -4.234375 C 11.21875 -4.285156 11.269531 -4.332031 11.3125 -4.375 C 11.394531 -4.4375 11.46875 -4.5 11.53125 -4.5625 C 11.675781 -4.71875 11.863281 -4.851562 12.09375 -4.96875 Z M 12.09375 -4.96875 "/></g></g></g><g fill="#ff751f" fill-opacity="1"><g transform="translate(60.657804, 40.123649)"><g/></g></g><g fill="#ff751f" fill-opacity="1"><g transform="translate(64.82034, 40.123649)"><g><path d="M 17.5625 -32.65625 C 18.820312 -32.03125 19.835938 -31.222656 20.609375 -30.234375 C 21.390625 -29.253906 21.9375 -28.125 22.25 -26.84375 C 22.3125 -26.5625 22.335938 -26.273438 22.328125 -25.984375 C 22.328125 -25.921875 22.328125 -25.859375 22.328125 -25.796875 C 22.328125 -25.566406 22.207031 -25.40625 21.96875 -25.3125 C 21.84375 -25.25 21.726562 -25.234375 21.625 -25.265625 C 21.519531 -25.296875 21.453125 -25.363281 21.421875 -25.46875 C 21.359375 -25.6875 21.304688 -25.90625 21.265625 -26.125 C 21.242188 -26.175781 21.226562 -26.226562 21.21875 -26.28125 C 20.8125 -27.925781 19.957031 -29.34375 18.65625 -30.53125 C 16.9375 -32.101562 14.878906 -32.71875 12.484375 -32.375 C 10.410156 -32.070312 8.519531 -31.363281 6.8125 -30.25 C 4.488281 -28.78125 2.5625 -26.945312 1.03125 -24.75 C 0.570312 -24.101562 0.1875 -23.429688 -0.125 -22.734375 C -1.1875 -20.390625 -1.242188 -18.039062 -0.296875 -15.6875 C -0.00390625 -14.914062 0.359375 -14.1875 0.796875 -13.5 C 1.242188 -12.820312 1.722656 -12.160156 2.234375 -11.515625 C 3.390625 -10.085938 4.628906 -8.734375 5.953125 -7.453125 C 6.660156 -6.753906 7.375 -6.070312 8.09375 -5.40625 C 9.101562 -4.425781 10.101562 -3.445312 11.09375 -2.46875 C 12.34375 -1.25 13.484375 0.0507812 14.515625 1.4375 C 14.835938 1.875 15.132812 2.332031 15.40625 2.8125 C 15.675781 3.289062 15.890625 3.796875 16.046875 4.328125 C 16.492188 5.753906 16.039062 6.859375 14.6875 7.640625 C 13.976562 8.078125 13.210938 8.335938 12.390625 8.421875 C 8.703125 8.703125 5.769531 7.46875 3.59375 4.71875 C 3.039062 4 2.691406 3.234375 2.546875 2.421875 C 2.398438 1.609375 2.40625 0.773438 2.5625 -0.078125 C 2.894531 -2.015625 3.722656 -3.75 5.046875 -5.28125 C 5.179688 -5.4375 5.3125 -5.585938 5.4375 -5.734375 C 5.476562 -5.804688 5.53125 -5.875 5.59375 -5.9375 C 5.457031 -6.175781 5.296875 -6.375 5.109375 -6.53125 C 5.046875 -6.59375 4.992188 -6.644531 4.953125 -6.6875 C 3.554688 -8.0625 2.25 -9.5 1.03125 -11 C 0.1875 -12.03125 -0.523438 -13.132812 -1.109375 -14.3125 C -2.617188 -17.320312 -2.585938 -20.320312 -1.015625 -23.3125 C -0.140625 -24.882812 0.914062 -26.296875 2.15625 -27.546875 C 3.40625 -28.796875 4.816406 -29.910156 6.390625 -30.890625 C 7.929688 -31.847656 9.601562 -32.546875 11.40625 -32.984375 C 12.15625 -33.160156 12.910156 -33.269531 13.671875 -33.3125 C 14.429688 -33.363281 15.195312 -33.316406 15.96875 -33.171875 C 16.53125 -33.066406 17.0625 -32.894531 17.5625 -32.65625 Z M 5.984375 -5.234375 C 5.878906 -5.140625 5.785156 -5.035156 5.703125 -4.921875 C 5.128906 -4.148438 4.6875 -3.332031 4.375 -2.46875 C 4.0625 -1.601562 3.847656 -0.703125 3.734375 0.234375 C 3.523438 2.128906 4.144531 3.742188 5.59375 5.078125 C 6.976562 6.378906 8.644531 7.1875 10.59375 7.5 C 11.488281 7.664062 12.378906 7.640625 13.265625 7.421875 C 14.617188 7.066406 15.144531 6.25 14.84375 4.96875 C 14.675781 4.363281 14.425781 3.785156 14.09375 3.234375 C 13.582031 2.378906 13 1.566406 12.34375 0.796875 C 11.539062 -0.160156 10.691406 -1.085938 9.796875 -1.984375 C 8.898438 -2.878906 7.988281 -3.765625 7.0625 -4.640625 C 6.851562 -4.828125 6.648438 -5.015625 6.453125 -5.203125 C 6.398438 -5.253906 6.335938 -5.289062 6.265625 -5.3125 C 6.234375 -5.34375 6.203125 -5.363281 6.171875 -5.375 C 6.148438 -5.363281 6.128906 -5.347656 6.109375 -5.328125 C 6.054688 -5.304688 6.015625 -5.273438 5.984375 -5.234375 Z M 5.984375 -5.234375 "/></g></g></g><g fill="#ff751f" fill-opacity="1"><g transform="translate(79.839886, 40.123649)"><g><path d="M 11.265625 -4.546875 C 11.335938 -4.640625 11.398438 -4.664062 11.453125 -4.625 C 11.503906 -4.582031 11.515625 -4.503906 11.484375 -4.390625 C 11.359375 -3.691406 10.578125 -3.097656 9.140625 -2.609375 C 8.242188 -2.253906 7.441406 -2.097656 6.734375 -2.140625 C 6.023438 -2.179688 5.457031 -2.457031 5.03125 -2.96875 C 4.601562 -3.488281 4.363281 -4.300781 4.3125 -5.40625 C 4.28125 -5.894531 4.175781 -6.097656 4 -6.015625 C 3.832031 -5.929688 3.628906 -5.679688 3.390625 -5.265625 C 3.148438 -4.847656 2.910156 -4.375 2.671875 -3.84375 C 2.429688 -3.3125 2.222656 -2.84375 2.046875 -2.4375 C 1.878906 -2.039062 1.789062 -1.816406 1.78125 -1.765625 C 1.757812 -1.671875 1.734375 -1.585938 1.703125 -1.515625 C 1.628906 -1.265625 1.535156 -1.023438 1.421875 -0.796875 C 1.328125 -0.617188 1.179688 -0.5 0.984375 -0.4375 C 0.785156 -0.375 0.578125 -0.378906 0.359375 -0.453125 C 0.222656 -0.535156 0.132812 -0.640625 0.09375 -0.765625 C 0.0195312 -0.992188 0 -1.21875 0.03125 -1.4375 C 0.03125 -1.457031 0.03125 -1.484375 0.03125 -1.515625 C 0.101562 -2.578125 0.132812 -4.164062 0.125 -6.28125 C 0.125 -7.625 0.132812 -9.050781 0.15625 -10.5625 C 0.175781 -12.082031 0.21875 -13.582031 0.28125 -15.0625 C 0.375 -16.664062 0.535156 -18.128906 0.765625 -19.453125 C 0.992188 -20.785156 1.359375 -21.863281 1.859375 -22.6875 C 2.359375 -23.507812 3.054688 -23.96875 3.953125 -24.0625 C 4.335938 -24.101562 4.722656 -24.0625 5.109375 -23.9375 C 5.503906 -23.820312 5.875 -23.59375 6.21875 -23.25 C 6.96875 -22.539062 7.507812 -21.550781 7.84375 -20.28125 C 8.1875 -19.019531 8.222656 -17.566406 7.953125 -15.921875 C 7.691406 -14.273438 7.039062 -12.519531 6 -10.65625 C 4.957031 -8.789062 3.4375 -6.90625 1.4375 -5 C 1.414062 -4.945312 1.40625 -4.90625 1.40625 -4.875 C 1.394531 -4.851562 1.390625 -4.835938 1.390625 -4.828125 C 1.390625 -4.816406 1.390625 -4.804688 1.390625 -4.796875 C 1.390625 -4.796875 1.390625 -4.789062 1.390625 -4.78125 C 1.390625 -4.769531 1.390625 -4.765625 1.390625 -4.765625 C 1.398438 -4.765625 1.40625 -4.757812 1.40625 -4.75 C 1.40625 -4.738281 1.40625 -4.726562 1.40625 -4.71875 C 1.414062 -4.707031 1.421875 -4.6875 1.421875 -4.65625 C 1.421875 -4.625 1.421875 -4.585938 1.421875 -4.546875 C 1.421875 -4.503906 1.421875 -4.453125 1.421875 -4.390625 C 1.421875 -4.335938 1.414062 -4.269531 1.40625 -4.1875 C 1.40625 -4.101562 1.40625 -4.007812 1.40625 -3.90625 C 1.53125 -4.113281 1.648438 -4.332031 1.765625 -4.5625 C 2.046875 -5.09375 2.367188 -5.582031 2.734375 -6.03125 C 3.097656 -6.488281 3.585938 -6.773438 4.203125 -6.890625 C 4.460938 -6.921875 4.738281 -6.894531 5.03125 -6.8125 C 5.320312 -6.738281 5.515625 -6.539062 5.609375 -6.21875 C 5.679688 -5.820312 5.707031 -5.414062 5.6875 -5 C 5.664062 -4.695312 5.664062 -4.410156 5.6875 -4.140625 C 5.71875 -3.878906 5.804688 -3.65625 5.953125 -3.46875 C 6.109375 -3.28125 6.375 -3.15625 6.75 -3.09375 C 7.25 -3.019531 7.800781 -3.035156 8.40625 -3.140625 C 9.019531 -3.253906 9.585938 -3.429688 10.109375 -3.671875 C 10.628906 -3.910156 11.015625 -4.203125 11.265625 -4.546875 Z M 2.78125 -21.890625 C 2.46875 -21.066406 2.210938 -19.867188 2.015625 -18.296875 C 1.828125 -16.734375 1.679688 -15.082031 1.578125 -13.34375 C 1.484375 -11.613281 1.425781 -10.070312 1.40625 -8.71875 C 1.382812 -7.363281 1.375 -6.472656 1.375 -6.046875 C 2.125 -6.648438 2.914062 -7.582031 3.75 -8.84375 C 4.582031 -10.101562 5.316406 -11.484375 5.953125 -12.984375 C 6.585938 -14.484375 6.972656 -15.910156 7.109375 -17.265625 C 7.179688 -18.429688 7.007812 -19.582031 6.59375 -20.71875 C 6.1875 -21.851562 5.675781 -22.664062 5.0625 -23.15625 C 4.632812 -23.457031 4.210938 -23.488281 3.796875 -23.25 C 3.390625 -23.007812 3.050781 -22.554688 2.78125 -21.890625 Z M 2.78125 -21.890625 "/></g></g></g><g fill="#ff751f" fill-opacity="1"><g transform="translate(90.639538, 40.123649)"><g><path d="M 12.125 -4.734375 C 12.21875 -4.867188 12.316406 -4.96875 12.421875 -5.03125 C 12.535156 -5.09375 12.601562 -5.09375 12.625 -5.03125 C 12.644531 -4.96875 12.585938 -4.820312 12.453125 -4.59375 C 12.128906 -4.113281 11.65625 -3.65625 11.03125 -3.21875 C 10.40625 -2.789062 9.710938 -2.421875 8.953125 -2.109375 C 8.191406 -1.804688 7.453125 -1.601562 6.734375 -1.5 C 6.015625 -1.40625 5.40625 -1.453125 4.90625 -1.640625 C 4.40625 -1.835938 4.09375 -2.21875 3.96875 -2.78125 C 3.550781 -2.101562 3.050781 -1.570312 2.46875 -1.1875 C 1.894531 -0.800781 1.347656 -0.640625 0.828125 -0.703125 C 0.234375 -0.773438 -0.15625 -0.992188 -0.34375 -1.359375 C -0.539062 -1.722656 -0.609375 -2.140625 -0.546875 -2.609375 C -0.484375 -3.078125 -0.34375 -3.519531 -0.125 -3.9375 C 0.0390625 -4.257812 0.273438 -4.5625 0.578125 -4.84375 C 0.878906 -5.125 1.191406 -5.34375 1.515625 -5.5 C 1.921875 -5.707031 2.332031 -5.800781 2.75 -5.78125 C 3.164062 -5.757812 3.609375 -5.625 4.078125 -5.375 C 4.078125 -5.375 4.082031 -5.382812 4.09375 -5.40625 C 4.09375 -5.457031 4.101562 -5.515625 4.125 -5.578125 C 4.144531 -5.640625 4.179688 -5.695312 4.234375 -5.75 C 4.316406 -5.8125 4.421875 -5.859375 4.546875 -5.890625 C 4.679688 -5.929688 4.804688 -5.9375 4.921875 -5.90625 C 5.117188 -5.875 5.238281 -5.78125 5.28125 -5.625 C 5.332031 -5.46875 5.34375 -5.296875 5.3125 -5.109375 C 5.28125 -4.921875 5.25 -4.765625 5.21875 -4.640625 C 5.207031 -4.609375 5.203125 -4.582031 5.203125 -4.5625 C 5.003906 -3.769531 5.070312 -3.210938 5.40625 -2.890625 C 5.75 -2.566406 6.238281 -2.414062 6.875 -2.4375 C 7.519531 -2.46875 8.203125 -2.601562 8.921875 -2.84375 C 9.648438 -3.09375 10.304688 -3.390625 10.890625 -3.734375 C 11.484375 -4.078125 11.894531 -4.410156 12.125 -4.734375 Z M 1.0625 -1.765625 C 1.3125 -1.597656 1.582031 -1.613281 1.875 -1.8125 C 2.164062 -2.019531 2.445312 -2.316406 2.71875 -2.703125 C 3 -3.085938 3.226562 -3.46875 3.40625 -3.84375 C 3.59375 -4.226562 3.695312 -4.519531 3.71875 -4.71875 C 3.144531 -5.03125 2.648438 -5.085938 2.234375 -4.890625 C 1.828125 -4.691406 1.507812 -4.375 1.28125 -3.9375 C 1.050781 -3.5 0.914062 -3.066406 0.875 -2.640625 C 0.84375 -2.210938 0.90625 -1.921875 1.0625 -1.765625 Z M 1.0625 -1.765625 "/></g></g></g><g fill="#ff751f" fill-opacity="1"><g transform="translate(102.356914, 40.123649)"><g><path d="M 1.84375 -1.46875 C 1.351562 -1.488281 0.957031 -1.707031 0.65625 -2.125 C 0.363281 -2.539062 0.175781 -3.070312 0.09375 -3.71875 C 0.0195312 -4.363281 0.0820312 -5.019531 0.28125 -5.6875 C 0.332031 -5.894531 0.46875 -6.046875 0.6875 -6.140625 C 0.84375 -6.191406 1 -6.179688 1.15625 -6.109375 C 1.320312 -6.046875 1.410156 -5.9375 1.421875 -5.78125 C 1.421875 -5.632812 1.410156 -5.492188 1.390625 -5.359375 C 1.367188 -5.242188 1.351562 -5.140625 1.34375 -5.046875 C 1.3125 -4.648438 1.316406 -4.21875 1.359375 -3.75 C 1.398438 -3.28125 1.523438 -2.875 1.734375 -2.53125 C 1.941406 -2.269531 2.171875 -2.238281 2.421875 -2.4375 C 2.671875 -2.632812 2.890625 -2.945312 3.078125 -3.375 C 3.234375 -3.707031 3.347656 -4.035156 3.421875 -4.359375 C 3.503906 -4.691406 3.5625 -4.953125 3.59375 -5.140625 C 3.613281 -5.203125 3.625 -5.25 3.625 -5.28125 C 3.664062 -5.425781 3.703125 -5.570312 3.734375 -5.71875 C 3.796875 -5.90625 3.851562 -6.097656 3.90625 -6.296875 C 4.019531 -6.660156 4.285156 -6.816406 4.703125 -6.765625 C 4.953125 -6.734375 5.09375 -6.601562 5.125 -6.375 C 5.144531 -6.0625 5.148438 -5.753906 5.140625 -5.453125 C 5.128906 -5.304688 5.125 -5.171875 5.125 -5.046875 C 5.082031 -4.492188 5.066406 -3.90625 5.078125 -3.28125 C 5.097656 -2.664062 5.203125 -2.15625 5.390625 -1.75 C 5.410156 -1.695312 5.414062 -1.625 5.40625 -1.53125 C 5.40625 -1.4375 5.378906 -1.34375 5.328125 -1.25 C 5.273438 -1.15625 5.1875 -1.097656 5.0625 -1.078125 C 4.945312 -1.066406 4.785156 -1.117188 4.578125 -1.234375 C 4.285156 -1.429688 4.09375 -1.691406 4 -2.015625 C 3.914062 -2.347656 3.875 -2.671875 3.875 -2.984375 C 3.863281 -3.160156 3.851562 -3.320312 3.84375 -3.46875 C 3.738281 -2.832031 3.492188 -2.34375 3.109375 -2 C 2.722656 -1.664062 2.300781 -1.488281 1.84375 -1.46875 Z M 1.84375 -1.46875 "/></g></g></g><g fill="#ff751f" fill-opacity="1"><g transform="translate(108.502391, 40.123649)"><g><path d="M 5.234375 -3.921875 C 5.335938 -4.140625 5.40625 -4.238281 5.4375 -4.21875 C 5.476562 -4.207031 5.488281 -4.125 5.46875 -3.96875 C 5.457031 -3.8125 5.425781 -3.632812 5.375 -3.4375 C 5.300781 -3.132812 5.175781 -2.785156 5 -2.390625 C 4.820312 -1.992188 4.628906 -1.632812 4.421875 -1.3125 C 4.097656 -0.863281 3.703125 -0.523438 3.234375 -0.296875 C 2.773438 -0.0664062 2.351562 -0.0078125 1.96875 -0.125 C 1.59375 -0.238281 1.375 -0.597656 1.3125 -1.203125 C 1.300781 -1.703125 1.34375 -2.253906 1.4375 -2.859375 C 1.476562 -3.109375 1.515625 -3.351562 1.546875 -3.59375 C 1.546875 -3.6875 1.523438 -3.753906 1.484375 -3.796875 C 1.441406 -3.847656 1.382812 -3.867188 1.3125 -3.859375 C 1.257812 -3.859375 1.203125 -3.859375 1.140625 -3.859375 C 0.847656 -3.804688 0.546875 -3.8125 0.234375 -3.875 C -0.140625 -3.976562 -0.359375 -4.160156 -0.421875 -4.421875 C -0.484375 -4.679688 -0.476562 -5.023438 -0.40625 -5.453125 C -0.363281 -5.742188 -0.25 -5.960938 -0.0625 -6.109375 C 0.125 -6.265625 0.34375 -6.332031 0.59375 -6.3125 C 0.9375 -6.28125 1.101562 -6.144531 1.09375 -5.90625 C 1.082031 -5.664062 1.019531 -5.414062 0.90625 -5.15625 C 0.789062 -4.925781 0.726562 -4.734375 0.71875 -4.578125 C 0.71875 -4.429688 0.847656 -4.378906 1.109375 -4.421875 C 1.171875 -4.441406 1.238281 -4.460938 1.3125 -4.484375 C 1.40625 -4.523438 1.515625 -4.5625 1.640625 -4.59375 C 1.773438 -4.625 1.941406 -4.628906 2.140625 -4.609375 C 2.378906 -4.597656 2.535156 -4.488281 2.609375 -4.28125 C 2.691406 -4.070312 2.726562 -3.804688 2.71875 -3.484375 C 2.707031 -3.171875 2.675781 -2.847656 2.625 -2.515625 C 2.570312 -2.109375 2.546875 -1.757812 2.546875 -1.46875 C 2.546875 -1.175781 2.628906 -1.003906 2.796875 -0.953125 C 3.023438 -0.890625 3.359375 -1.09375 3.796875 -1.5625 C 4.242188 -2.03125 4.722656 -2.816406 5.234375 -3.921875 Z M 5.234375 -3.921875 "/></g></g></g><g fill="#ff751f" fill-opacity="1"><g transform="translate(113.5171, 40.123649)"><g><path d="M 4.6875 -5.421875 C 4.9375 -5.453125 5.113281 -5.40625 5.21875 -5.28125 C 5.300781 -5.144531 5.335938 -4.6875 5.328125 -3.90625 C 5.316406 -3.125 5.273438 -2.210938 5.203125 -1.171875 C 5.140625 -0.140625 5.066406 0.8125 4.984375 1.6875 C 4.898438 2.570312 4.832031 3.191406 4.78125 3.546875 C 4.425781 5.546875 3.796875 7.21875 2.890625 8.5625 C 1.992188 9.914062 0.96875 10.957031 -0.1875 11.6875 C -1.34375 12.425781 -2.484375 12.875 -3.609375 13.03125 C -4.742188 13.1875 -5.703125 13.078125 -6.484375 12.703125 C -7.273438 12.328125 -7.742188 11.703125 -7.890625 10.828125 C -8.046875 9.960938 -7.734375 8.867188 -6.953125 7.546875 C -6.171875 6.222656 -4.773438 4.695312 -2.765625 2.96875 C -1.960938 2.3125 -0.859375 1.507812 0.546875 0.5625 C 1.960938 -0.375 3.082031 -1.007812 3.90625 -1.34375 C 3.925781 -1.5 3.941406 -1.671875 3.953125 -1.859375 C 3.609375 -1.460938 3.257812 -1.234375 2.90625 -1.171875 C 2.550781 -1.117188 2.222656 -1.117188 1.921875 -1.171875 C 1.898438 -1.171875 1.882812 -1.171875 1.875 -1.171875 C 1.332031 -1.234375 0.90625 -1.476562 0.59375 -1.90625 C 0.289062 -2.34375 0.0976562 -2.832031 0.015625 -3.375 C -0.0664062 -3.925781 -0.046875 -4.414062 0.078125 -4.84375 C 0.210938 -5.28125 0.460938 -5.539062 0.828125 -5.625 C 0.972656 -5.644531 1.132812 -5.65625 1.3125 -5.65625 C 1.5 -5.664062 1.648438 -5.644531 1.765625 -5.59375 C 1.890625 -5.550781 1.9375 -5.457031 1.90625 -5.3125 C 1.789062 -4.882812 1.722656 -4.40625 1.703125 -3.875 C 1.691406 -3.351562 1.738281 -2.894531 1.84375 -2.5 C 1.945312 -2.113281 2.132812 -1.90625 2.40625 -1.875 C 2.6875 -1.851562 3.0625 -2.113281 3.53125 -2.65625 C 3.75 -2.925781 3.898438 -3.21875 3.984375 -3.53125 C 3.984375 -3.863281 3.976562 -4.179688 3.96875 -4.484375 C 3.957031 -4.765625 3.953125 -5 3.953125 -5.1875 C 4.015625 -5.28125 4.113281 -5.34375 4.25 -5.375 C 4.382812 -5.40625 4.507812 -5.421875 4.625 -5.421875 C 4.644531 -5.421875 4.664062 -5.421875 4.6875 -5.421875 Z M 3.875 0.09375 C 3.875 0.0820312 3.875 0.0703125 3.875 0.0625 C 3.882812 -0.0078125 3.890625 -0.101562 3.890625 -0.21875 C 3.898438 -0.332031 3.894531 -0.421875 3.875 -0.484375 C 3.851562 -0.554688 3.804688 -0.566406 3.734375 -0.515625 C 3.648438 -0.453125 3.550781 -0.382812 3.4375 -0.3125 C 2.75 0.15625 1.84375 0.804688 0.71875 1.640625 C -0.40625 2.484375 -1.535156 3.4375 -2.671875 4.5 C -2.898438 4.71875 -3.21875 5.039062 -3.625 5.46875 C -4.039062 5.894531 -4.476562 6.378906 -4.9375 6.921875 C -5.394531 7.472656 -5.796875 8.039062 -6.140625 8.625 C -6.484375 9.207031 -6.695312 9.753906 -6.78125 10.265625 C -6.863281 10.785156 -6.75 11.234375 -6.4375 11.609375 C -6.019531 12.054688 -5.410156 12.25 -4.609375 12.1875 C -3.804688 12.125 -2.929688 11.820312 -1.984375 11.28125 C -1.035156 10.738281 -0.125 9.957031 0.75 8.9375 C 1.632812 7.925781 2.363281 6.679688 2.9375 5.203125 C 3.519531 3.722656 3.832031 2.019531 3.875 0.09375 Z M 3.875 0.09375 "/></g></g></g><g fill="#ff751f" fill-opacity="1"><g transform="translate(120.129633, 40.123649)"><g><path d="M 12.125 -4.734375 C 12.21875 -4.867188 12.316406 -4.96875 12.421875 -5.03125 C 12.535156 -5.09375 12.601562 -5.09375 12.625 -5.03125 C 12.644531 -4.96875 12.585938 -4.820312 12.453125 -4.59375 C 12.128906 -4.113281 11.65625 -3.65625 11.03125 -3.21875 C 10.40625 -2.789062 9.710938 -2.421875 8.953125 -2.109375 C 8.191406 -1.804688 7.453125 -1.601562 6.734375 -1.5 C 6.015625 -1.40625 5.40625 -1.453125 4.90625 -1.640625 C 4.40625 -1.835938 4.09375 -2.21875 3.96875 -2.78125 C 3.550781 -2.101562 3.050781 -1.570312 2.46875 -1.1875 C 1.894531 -0.800781 1.347656 -0.640625 0.828125 -0.703125 C 0.234375 -0.773438 -0.15625 -0.992188 -0.34375 -1.359375 C -0.539062 -1.722656 -0.609375 -2.140625 -0.546875 -2.609375 C -0.484375 -3.078125 -0.34375 -3.519531 -0.125 -3.9375 C 0.0390625 -4.257812 0.273438 -4.5625 0.578125 -4.84375 C 0.878906 -5.125 1.191406 -5.34375 1.515625 -5.5 C 1.921875 -5.707031 2.332031 -5.800781 2.75 -5.78125 C 3.164062 -5.757812 3.609375 -5.625 4.078125 -5.375 C 4.078125 -5.375 4.082031 -5.382812 4.09375 -5.40625 C 4.09375 -5.457031 4.101562 -5.515625 4.125 -5.578125 C 4.144531 -5.640625 4.179688 -5.695312 4.234375 -5.75 C 4.316406 -5.8125 4.421875 -5.859375 4.546875 -5.890625 C 4.679688 -5.929688 4.804688 -5.9375 4.921875 -5.90625 C 5.117188 -5.875 5.238281 -5.78125 5.28125 -5.625 C 5.332031 -5.46875 5.34375 -5.296875 5.3125 -5.109375 C 5.28125 -4.921875 5.25 -4.765625 5.21875 -4.640625 C 5.207031 -4.609375 5.203125 -4.582031 5.203125 -4.5625 C 5.003906 -3.769531 5.070312 -3.210938 5.40625 -2.890625 C 5.75 -2.566406 6.238281 -2.414062 6.875 -2.4375 C 7.519531 -2.46875 8.203125 -2.601562 8.921875 -2.84375 C 9.648438 -3.09375 10.304688 -3.390625 10.890625 -3.734375 C 11.484375 -4.078125 11.894531 -4.410156 12.125 -4.734375 Z M 1.0625 -1.765625 C 1.3125 -1.597656 1.582031 -1.613281 1.875 -1.8125 C 2.164062 -2.019531 2.445312 -2.316406 2.71875 -2.703125 C 3 -3.085938 3.226562 -3.46875 3.40625 -3.84375 C 3.59375 -4.226562 3.695312 -4.519531 3.71875 -4.71875 C 3.144531 -5.03125 2.648438 -5.085938 2.234375 -4.890625 C 1.828125 -4.691406 1.507812 -4.375 1.28125 -3.9375 C 1.050781 -3.5 0.914062 -3.066406 0.875 -2.640625 C 0.84375 -2.210938 0.90625 -1.921875 1.0625 -1.765625 Z M 1.0625 -1.765625 "/></g></g></g><g fill="#ff751f" fill-opacity="1"><g transform="translate(131.84701, 40.123649)"><g><path d="M 10 -3.0625 C 10 -3.0625 10.003906 -3.066406 10.015625 -3.078125 C 10.066406 -3.128906 10.179688 -3.238281 10.359375 -3.40625 C 10.546875 -3.570312 10.738281 -3.726562 10.9375 -3.875 C 11.144531 -4.03125 11.296875 -4.109375 11.390625 -4.109375 C 11.484375 -4.117188 11.457031 -3.984375 11.3125 -3.703125 C 11.300781 -3.671875 11.273438 -3.628906 11.234375 -3.578125 C 11.191406 -3.535156 11.148438 -3.484375 11.109375 -3.421875 C 11.097656 -3.410156 11.085938 -3.398438 11.078125 -3.390625 C 10.222656 -2.492188 9.554688 -1.867188 9.078125 -1.515625 C 8.609375 -1.160156 8.144531 -1.003906 7.6875 -1.046875 C 7.207031 -1.085938 6.882812 -1.304688 6.71875 -1.703125 C 6.550781 -2.097656 6.476562 -2.585938 6.5 -3.171875 C 6.519531 -3.753906 6.566406 -4.34375 6.640625 -4.9375 C 6.722656 -5.5625 6.765625 -6.085938 6.765625 -6.515625 C 6.765625 -6.953125 6.644531 -7.203125 6.40625 -7.265625 C 6.21875 -7.273438 6.007812 -7.054688 5.78125 -6.609375 C 5.5625 -6.171875 5.34375 -5.644531 5.125 -5.03125 C 4.914062 -4.414062 4.738281 -3.863281 4.59375 -3.375 C 4.46875 -2.957031 4.378906 -2.6875 4.328125 -2.5625 C 4.242188 -2.363281 4.109375 -2.238281 3.921875 -2.1875 C 3.734375 -2.132812 3.546875 -2.148438 3.359375 -2.234375 C 3.222656 -2.296875 3.148438 -2.390625 3.140625 -2.515625 C 3.097656 -2.804688 3.082031 -3.109375 3.09375 -3.421875 C 3.09375 -3.628906 3.085938 -3.828125 3.078125 -4.015625 C 3.078125 -4.066406 3.078125 -4.128906 3.078125 -4.203125 C 3.085938 -4.296875 3.085938 -4.390625 3.078125 -4.484375 C 3.078125 -4.585938 3.066406 -4.671875 3.046875 -4.734375 C 3.035156 -4.804688 3.003906 -4.847656 2.953125 -4.859375 C 2.859375 -4.859375 2.742188 -4.742188 2.609375 -4.515625 C 2.472656 -4.296875 2.332031 -4.019531 2.1875 -3.6875 C 2.050781 -3.351562 1.929688 -3.050781 1.828125 -2.78125 C 1.742188 -2.550781 1.679688 -2.398438 1.640625 -2.328125 C 1.617188 -2.285156 1.601562 -2.253906 1.59375 -2.234375 C 1.476562 -2.003906 1.363281 -1.78125 1.25 -1.5625 C 1.144531 -1.382812 0.992188 -1.273438 0.796875 -1.234375 C 0.335938 -1.171875 0.09375 -1.351562 0.0625 -1.78125 C 0.03125 -2.863281 0.00390625 -3.953125 -0.015625 -5.046875 C -0.00390625 -5.253906 0.0820312 -5.382812 0.25 -5.4375 C 0.425781 -5.5 0.601562 -5.5 0.78125 -5.4375 C 0.957031 -5.382812 1.054688 -5.28125 1.078125 -5.125 C 1.085938 -5.050781 1.09375 -4.96875 1.09375 -4.875 C 1.144531 -4.414062 1.203125 -4.1875 1.265625 -4.1875 C 1.335938 -4.1875 1.492188 -4.390625 1.734375 -4.796875 C 1.847656 -4.992188 1.972656 -5.195312 2.109375 -5.40625 C 2.265625 -5.6875 2.46875 -5.925781 2.71875 -6.125 C 3 -6.300781 3.265625 -6.351562 3.515625 -6.28125 C 3.765625 -6.21875 3.96875 -6.035156 4.125 -5.734375 C 4.207031 -5.546875 4.285156 -5.46875 4.359375 -5.5 C 4.359375 -5.5 4.367188 -5.503906 4.390625 -5.515625 C 4.410156 -5.585938 4.503906 -5.796875 4.671875 -6.140625 C 4.835938 -6.492188 5.0625 -6.878906 5.34375 -7.296875 C 5.632812 -7.710938 5.953125 -8.050781 6.296875 -8.3125 C 6.535156 -8.476562 6.789062 -8.570312 7.0625 -8.59375 C 7.34375 -8.613281 7.585938 -8.535156 7.796875 -8.359375 C 8.015625 -8.191406 8.140625 -7.898438 8.171875 -7.484375 C 8.191406 -7.148438 8.171875 -6.675781 8.109375 -6.0625 C 8.046875 -5.445312 7.96875 -4.84375 7.875 -4.25 C 7.8125 -3.695312 7.769531 -3.269531 7.75 -2.96875 C 7.71875 -2.34375 7.820312 -2.003906 8.0625 -1.953125 C 8.300781 -1.898438 8.597656 -1.992188 8.953125 -2.234375 C 9.316406 -2.484375 9.664062 -2.757812 10 -3.0625 Z M 10 -3.0625 "/></g></g></g></svg>